G04 Layer_Physical_Order=4*
G04 Layer_Color=16711680*
%FSLAX43Y43*%
%MOMM*%
G71*
G01*
G75*
%ADD10C,0.300*%
%ADD11C,0.200*%
%ADD12C,0.200*%
%ADD13C,0.500*%
%ADD36C,1.700*%
%ADD37R,1.700X1.700*%
%ADD38C,1.398*%
%ADD39C,3.250*%
%ADD40C,1.400*%
%ADD41R,1.400X1.400*%
%ADD42C,1.200*%
%ADD43R,1.200X1.200*%
%ADD44R,1.700X1.700*%
%ADD45C,1.500*%
%ADD46C,0.700*%
%ADD47C,1.000*%
D10*
X53422Y20741D02*
G03*
X55218Y19997I1796J1796D01*
G01*
X48507Y25656D02*
G03*
X46711Y26400I-1796J-1796D01*
G01*
X55218Y19997D02*
X61600D01*
X32150Y26400D02*
X46711D01*
X48507Y25656D02*
X53422Y20741D01*
D11*
X23326Y15174D02*
G03*
X24350Y14750I1024J1024D01*
G01*
D02*
G03*
X24457Y15008I-258J258D01*
G01*
X25201Y28356D02*
G03*
X24457Y26560I1796J-1796D01*
G01*
X27799Y30356D02*
G03*
X26003Y31100I-1796J-1796D01*
G01*
X8424Y45800D02*
G03*
X7700Y45500I0J-1024D01*
G01*
X9824Y45376D02*
G03*
X8800Y45800I-1024J-1025D01*
G01*
X7497Y45297D02*
G03*
X7400Y45062I235J-235D01*
G01*
X14044Y46556D02*
G03*
X12248Y47300I-1796J-1796D01*
G01*
X29500Y30048D02*
G03*
X28756Y31844I-2540J0D01*
G01*
X23080Y27474D02*
G03*
X22336Y29270I-2540J0D01*
G01*
X20506Y33641D02*
G03*
X19762Y35438I-2540J0D01*
G01*
X16697Y30903D02*
G03*
X18493Y30159I1796J1796D01*
G01*
X20523Y19029D02*
G03*
X21267Y17233I2540J0D01*
G01*
X35487Y33987D02*
G03*
X36231Y35783I-1796J1796D01*
G01*
X30664Y25932D02*
G03*
X31408Y24136I2540J0D01*
G01*
X32439Y29275D02*
G03*
X30664Y27500I0J-1775D01*
G01*
X31408Y26232D02*
G03*
X32144Y24456I2512J0D01*
G01*
X32308Y28500D02*
G03*
X31408Y27600I0J-900D01*
G01*
X45947Y2000D02*
G03*
X47743Y2744I0J2540D01*
G01*
X41930D02*
G03*
X43726Y2000I1796J1796D01*
G01*
X32144Y13582D02*
G03*
X32888Y11786I2540J0D01*
G01*
X28700Y25652D02*
G03*
X29444Y23856I2540J0D01*
G01*
X32144Y20104D02*
G03*
X31400Y21900I-2540J0D01*
G01*
X36072Y15128D02*
G03*
X36985Y14750I913J913D01*
G01*
X33900Y18352D02*
G03*
X34644Y16556I2540J0D01*
G01*
X33900Y20592D02*
G03*
X33156Y22388I-2540J0D01*
G01*
X35715Y19833D02*
G03*
X34971Y21629I-2540J0D01*
G01*
X59036Y40036D02*
G03*
X58400Y38500I1536J-1536D01*
G01*
X57656Y35556D02*
G03*
X58400Y37352I-1796J1796D01*
G01*
X50323Y29275D02*
G03*
X52119Y30019I0J2540D01*
G01*
X59656Y36381D02*
G03*
X60400Y38177I-1796J1796D01*
G01*
X50723Y28500D02*
G03*
X52519Y29244I0J2540D01*
G01*
X10637Y7137D02*
G03*
X9893Y5341I1796J-1796D01*
G01*
X26756Y14056D02*
G03*
X27500Y15852I-1796J1796D01*
G01*
X22748Y11100D02*
G03*
X24544Y11844I0J2540D01*
G01*
X26900Y25901D02*
G03*
X26300Y27350I-2049J0D01*
G01*
X26156Y14756D02*
G03*
X26900Y16552I-1796J1796D01*
G01*
X22348Y12000D02*
G03*
X24144Y12744I0J2540D01*
G01*
X16552Y12000D02*
G03*
X14756Y11256I0J-2540D01*
G01*
X30252Y20100D02*
G03*
X28456Y19356I0J-2540D01*
G01*
X28244Y19144D02*
G03*
X27500Y17348I1796J-1796D01*
G01*
X18152Y11100D02*
G03*
X16356Y10356I0J-2540D01*
G01*
X13177Y7177D02*
G03*
X12433Y5381I1796J-1796D01*
G01*
X29182Y18782D02*
G03*
X28400Y18000I0J-782D01*
G01*
X27656Y12775D02*
G03*
X28400Y14571I-1796J1796D01*
G01*
X18604Y4775D02*
G03*
X20400Y5519I0J2540D01*
G01*
X7075Y20850D02*
G03*
X7100Y20910I-60J60D01*
G01*
X12365Y14435D02*
G03*
X11811Y15772I-1891J0D01*
G01*
X28556Y12494D02*
G03*
X29300Y14290I-1796J1796D01*
G01*
X18510Y3500D02*
G03*
X20306Y4244I0J2540D01*
G01*
X14750Y3500D02*
G03*
X12954Y2756I0J-2540D01*
G01*
X6051Y41964D02*
G03*
X6344Y41256I1001J0D01*
G01*
X6700Y45209D02*
G03*
X7325Y43700I2134J0D01*
G01*
X7275Y46925D02*
G03*
X6700Y45537I1388J-1388D01*
G01*
X8180Y47300D02*
G03*
X7275Y46925I0J-1280D01*
G01*
X25201Y28356D02*
X26745Y29900D01*
X24457Y15008D02*
Y26560D01*
X27799Y30356D02*
X28255Y29900D01*
X20506Y31100D02*
X22336Y29270D01*
X20506Y31100D02*
Y33641D01*
Y31100D02*
X26003D01*
X8424Y45800D02*
X8800D01*
X9824Y45376D02*
X19762Y35438D01*
X9824Y45376D02*
X9824Y45376D01*
X7497Y45297D02*
X7700Y45500D01*
X14044Y46556D02*
X28756Y31844D01*
X29500Y29850D02*
Y30048D01*
X23080Y17290D02*
Y27474D01*
X18493Y30159D02*
X20523D01*
X21267Y17233D02*
X23326Y15174D01*
X30900Y29400D02*
X35487Y33987D01*
X36231Y35783D02*
Y51213D01*
X32439Y29275D02*
X50323D01*
X30664Y25932D02*
Y27500D01*
X32144Y24456D02*
X34971Y21629D01*
X32308Y28500D02*
X50723D01*
X31408Y26232D02*
Y27600D01*
X47743Y2744D02*
X47872Y2873D01*
X43726Y2000D02*
X45947D01*
X28700Y25652D02*
Y27350D01*
X32888Y11786D02*
X41930Y2744D01*
X29444Y23856D02*
X31400Y21900D01*
X32144Y13582D02*
Y20104D01*
X35715Y17290D02*
Y19833D01*
X34644Y16556D02*
X36072Y15128D01*
X33900Y18352D02*
Y20592D01*
X31408Y24136D02*
X33156Y22388D01*
X59036Y40036D02*
X60400Y41400D01*
X58400Y37352D02*
Y38500D01*
X52119Y30019D02*
X57656Y35556D01*
X52519Y29244D02*
X59656Y36381D01*
X60400Y38177D02*
Y39400D01*
X10637Y7137D02*
X14756Y11256D01*
X9893Y4775D02*
Y5341D01*
X27500Y15852D02*
Y17348D01*
X24544Y11844D02*
X26756Y14056D01*
X18152Y11100D02*
X22748D01*
X26900Y16552D02*
Y25901D01*
X24144Y12744D02*
X26156Y14756D01*
X16552Y12000D02*
X22348D01*
X30252Y20100D02*
X31300D01*
X28244Y19144D02*
X28456Y19356D01*
X13177Y7177D02*
X16356Y10356D01*
X12433Y4775D02*
Y5381D01*
X28400Y14571D02*
Y18000D01*
X20400Y5519D02*
X27656Y12775D01*
X14973Y4775D02*
X18604D01*
X29300Y14290D02*
Y18100D01*
X29955Y18866D02*
X30027Y18795D01*
X29182Y18782D02*
X29955D01*
X7100Y20910D02*
Y22675D01*
X11433Y16150D02*
X11811Y15772D01*
X20306Y4244D02*
X28556Y12494D01*
X14750Y3500D02*
X18510D01*
X12433Y2235D02*
X12954Y2756D01*
X6051Y41964D02*
Y45062D01*
X6344Y41256D02*
X16697Y30903D01*
X6700Y45209D02*
Y45537D01*
X8180Y47300D02*
X12248D01*
X20523Y19029D02*
Y23004D01*
X20650Y23131D01*
X20523Y30159D02*
X20650Y30032D01*
Y23131D02*
Y30032D01*
D12*
X9824Y45376D02*
D03*
D13*
X7425Y4375D02*
G03*
X6877Y5698I-1871J0D01*
G01*
X1761Y11866D02*
G03*
X2505Y10070I2540J0D01*
G01*
X7425Y3377D02*
G03*
X8169Y1581I2540J0D01*
G01*
X8525Y1225D02*
G03*
X10094Y575I1569J1569D01*
G01*
X12261D02*
G03*
X14057Y1319I0J2540D01*
G01*
X2505Y31554D02*
G03*
X1761Y29758I1796J-1796D01*
G01*
X2850Y9725D02*
X6877Y5698D01*
X2505Y10070D02*
X2850Y9725D01*
X7425Y3377D02*
Y4375D01*
X8169Y1581D02*
X8525Y1225D01*
X10094Y575D02*
X12261D01*
X14057Y1319D02*
X14973Y2235D01*
X2505Y31554D02*
X2850Y31899D01*
X1761Y22342D02*
Y29758D01*
Y11866D02*
Y22342D01*
D36*
X56560Y29265D02*
D03*
X59100Y29265D02*
D03*
X61640Y29265D02*
D03*
X61640Y26725D02*
D03*
X59100D02*
D03*
X5450Y29025D02*
D03*
Y26525D02*
D03*
X14973Y2235D02*
D03*
X12433Y2235D02*
D03*
X9893Y2235D02*
D03*
X9893Y4775D02*
D03*
X12433D02*
D03*
X61600Y17457D02*
D03*
D37*
X56560Y26725D02*
D03*
X14973Y4775D02*
D03*
D38*
X21810Y14750D02*
D03*
X23080Y17290D02*
D03*
X24350Y14750D02*
D03*
X25620Y17290D02*
D03*
X38255D02*
D03*
X36985Y14750D02*
D03*
X35715Y17290D02*
D03*
X34445Y14750D02*
D03*
D39*
X27525Y8400D02*
D03*
X19905D02*
D03*
X32540Y8400D02*
D03*
X40160Y8400D02*
D03*
D40*
X18451Y53753D02*
D03*
X20991D02*
D03*
X36231D02*
D03*
X33691D02*
D03*
X26071D02*
D03*
X23531D02*
D03*
X28611D02*
D03*
X31151D02*
D03*
X41311D02*
D03*
X38771D02*
D03*
X43851D02*
D03*
X46391D02*
D03*
X8291D02*
D03*
X10831D02*
D03*
X13371D02*
D03*
X15911D02*
D03*
X46391Y51213D02*
D03*
X43851D02*
D03*
X38771D02*
D03*
X41311D02*
D03*
X31151D02*
D03*
X28611D02*
D03*
X23531D02*
D03*
X26071D02*
D03*
X33691D02*
D03*
X36231D02*
D03*
X20991D02*
D03*
X13371D02*
D03*
X10831D02*
D03*
X15911D02*
D03*
X18451D02*
D03*
X51471D02*
D03*
X48931D02*
D03*
X54011D02*
D03*
X56551D02*
D03*
Y53753D02*
D03*
X54011D02*
D03*
X48931D02*
D03*
X51471D02*
D03*
X52750Y10450D02*
D03*
Y18050D02*
D03*
D41*
X8291Y51213D02*
D03*
D42*
X60400Y41400D02*
D03*
X60400Y43400D02*
D03*
X60400Y45400D02*
D03*
D43*
Y39400D02*
D03*
D44*
X61600Y19997D02*
D03*
D45*
X14325Y21391D02*
D03*
Y16741D02*
D03*
D46*
X28255Y29900D02*
D03*
X26745D02*
D03*
X20506Y31100D02*
D03*
X29500Y29850D02*
D03*
X7400Y45062D02*
D03*
X20523Y30159D02*
D03*
X23980Y30159D02*
D03*
X30900Y29400D02*
D03*
X28700Y27350D02*
D03*
X47872Y2873D02*
D03*
X32150Y26400D02*
D03*
X26300Y27350D02*
D03*
X31300Y20100D02*
D03*
X29300Y18100D02*
D03*
X29955Y18782D02*
D03*
X23750Y25600D02*
D03*
Y24000D02*
D03*
X17342Y26908D02*
D03*
Y24708D02*
D03*
X34517Y27230D02*
D03*
X9450Y25025D02*
D03*
X12450Y25000D02*
D03*
X10125Y46225D02*
D03*
X35900Y23700D02*
D03*
X35908Y21618D02*
D03*
X51545Y1700D02*
D03*
X56200Y1870D02*
D03*
X59200Y9300D02*
D03*
X29650Y24800D02*
D03*
X14850Y47980D02*
D03*
X14825Y46975D02*
D03*
X14850Y49175D02*
D03*
X33603Y27255D02*
D03*
X49550Y47980D02*
D03*
X49525Y46675D02*
D03*
X49550Y49175D02*
D03*
X26975Y47980D02*
D03*
X26950Y46675D02*
D03*
X26975Y49175D02*
D03*
X2895Y53234D02*
D03*
X5370D02*
D03*
X1600Y48283D02*
D03*
X32947Y20363D02*
D03*
X16605Y7500D02*
D03*
X25055Y32792D02*
D03*
X26745Y32702D02*
D03*
X6662Y13479D02*
D03*
X7575Y13491D02*
D03*
X7575Y12779D02*
D03*
X6662Y12766D02*
D03*
Y34651D02*
D03*
X7575Y34663D02*
D03*
X7575Y35375D02*
D03*
X6662Y35363D02*
D03*
X5213Y37262D02*
D03*
X5225Y38175D02*
D03*
X4513Y38175D02*
D03*
X4501Y37262D02*
D03*
X4501Y15378D02*
D03*
X4513Y16291D02*
D03*
X5225Y16291D02*
D03*
X5213Y15378D02*
D03*
X7075Y20850D02*
D03*
X7100Y22675D02*
D03*
X10757Y18409D02*
D03*
X12365Y14435D02*
D03*
X11433Y16150D02*
D03*
X9458Y12163D02*
D03*
X6051Y45062D02*
D03*
X7325Y43700D02*
D03*
X20000Y23400D02*
D03*
X22019Y33943D02*
D03*
X19900Y25863D02*
D03*
D47*
X51325Y33449D02*
D03*
X52409Y33449D02*
D03*
X46865Y36746D02*
D03*
Y35662D02*
D03*
Y34577D02*
D03*
Y33492D02*
D03*
X47970Y33509D02*
D03*
Y34593D02*
D03*
Y35678D02*
D03*
Y36762D02*
D03*
X52393Y34554D02*
D03*
X51308Y34554D02*
D03*
X51292Y35659D02*
D03*
X52377Y35659D02*
D03*
X49075Y36779D02*
D03*
Y35694D02*
D03*
Y34610D02*
D03*
Y33525D02*
D03*
X51276Y36764D02*
D03*
X52360Y36764D02*
D03*
X50180Y36795D02*
D03*
Y35710D02*
D03*
Y34626D02*
D03*
Y33541D02*
D03*
X42314Y45180D02*
D03*
X40810Y43779D02*
D03*
Y46548D02*
D03*
Y47933D02*
D03*
X39405Y47916D02*
D03*
Y46532D02*
D03*
X38000Y43746D02*
D03*
Y45131D02*
D03*
Y46515D02*
D03*
Y47900D02*
D03*
X42214Y47949D02*
D03*
Y46564D02*
D03*
X40810Y45163D02*
D03*
X39405Y45147D02*
D03*
Y43763D02*
D03*
X42314Y43795D02*
D03*
X30664Y35948D02*
D03*
Y37033D02*
D03*
X29560Y35932D02*
D03*
Y37016D02*
D03*
X28455Y37000D02*
D03*
Y35915D02*
D03*
X27350Y35899D02*
D03*
Y36984D02*
D03*
X26577Y41814D02*
D03*
X25493Y41814D02*
D03*
X26594Y40710D02*
D03*
X25509Y40710D02*
D03*
X25525Y39605D02*
D03*
X26610Y39605D02*
D03*
X26626Y38500D02*
D03*
X25542Y38500D02*
D03*
X30664Y34863D02*
D03*
X29560Y34847D02*
D03*
X28455Y34831D02*
D03*
X27350Y34815D02*
D03*
X1761Y22342D02*
D03*
X2850Y9725D02*
D03*
X2850Y31899D02*
D03*
X1761Y44175D02*
D03*
M02*
