M48
;Layer_Color=9474304
;FILE_FORMAT=4:3
METRIC,LZ
;TYPE=PLATED
T1F00S00C0.300
T2F00S00C0.500
T3F00S00C0.700
T4F00S00C0.890
T5F00S00C0.900
T6F00S00C0.920
T7F00S00C1.000
;TYPE=NON_PLATED
T8F00S00C2.700
T9F00S00C3.250
%
T01
X0047872Y0002873
X0051545Y00017
X00562Y000187
X00592Y00093
X00293Y00181
X0029955Y0018782
X0010757Y0018409
X0011433Y001615
X0012365Y0014435
X0009458Y0012163
X0007575Y0012779
X0007575Y0013491
X0006662Y0013479
Y0012766
X0005213Y0015378
X0005225Y0016291
X0016605Y00075
X0004501Y0015378
X0004513Y0016291
X0004501Y0037262
X0004513Y0038175
X00016Y0048283
X0002895Y0053234
X000537
X0006051Y0045062
X00074
X0007325Y00437
X0010125Y0046225
X0014825Y0046975
X001485Y004798
X001485Y0049175
X0026975
X0026975Y004798
X002695Y0046675
X0026745Y0032702
X0025055Y0032792
X002398Y0030159
X0026745Y00299
X0028255
X00295Y002985
X00309Y00294
X00287Y002735
X00263
X002375Y00256
Y0024
X002Y00234
X00199Y0025863
X0017342Y0026908
Y0024708
X001245Y0025
X000945Y0025025
X00071Y0022675
X0007075Y002085
X0006662Y0034651
Y0035363
X0007575Y0035375
X0007575Y0034663
X0005213Y0037262
X0005225Y0038175
X0022019Y0033943
X0020506Y00311
X0020523Y0030159
X002965Y00248
X003215Y00264
X0033603Y0027255
X0034517Y002723
X00359Y00237
X0035908Y0021618
X0032947Y0020363
X00313Y00201
X0049525Y0046675
X004955Y004798
X004955Y0049175
T02
X000285Y0009725
X0001761Y0022342
X000285Y0031899
X0001761Y0044175
X0025493Y0041814
X0026577Y0041814
X0026594Y004071
X0025509Y004071
X0025525Y0039605
X002661Y0039605
X0026626Y00385
X0025542Y00385
X002735Y0036984
Y0035899
Y0034815
X0028455Y0034831
Y0035915
Y0037
X002956Y0037016
Y0035932
Y0034847
X0030664Y0034863
Y0035948
Y0037033
X0038Y0043746
Y0045131
Y0046515
Y00479
X0039405Y0047916
Y0046532
Y0045147
Y0043763
X004081Y0043779
Y0045163
Y0046548
Y0047933
X0042214Y0047949
Y0046564
X0042314Y004518
Y0043795
X0046865Y0036746
Y0035662
Y0034577
Y0033492
X004797Y0033509
Y0034593
Y0035678
Y0036762
X0049075Y0036779
Y0035694
Y003461
Y0033525
X005018Y0033541
Y0034626
Y003571
Y0036795
X0051276Y0036764
X005236Y0036764
X0052377Y0035659
X0051292Y0035659
X0051308Y0034554
X0052393Y0034554
X0052409Y0033449
X0051325Y0033449
T03
X005275Y001045
Y001805
X0014325Y0016741
Y0021391
X00604Y00394
Y00414
X00604Y00434
X00604Y00454
T04
X002181Y001475
X002435
X002308Y001729
X002562
X0035715Y001729
X0038255Y001729
X0036985Y001475
X0034445Y001475
T05
X00616Y0017457
X0014973Y0004775
X0014973Y0002235
X0012433Y0002235
X0012433Y0004775
X0009893
X0009893Y0002235
X00616Y0019997
X006164Y0026725
X00591
X00591Y0029265
X005656Y0029265
X005656Y0026725
X006164Y0029265
T06
X0008291Y0051213
Y0053753
X0010831
X0013371
X0015911
X0018451
X0020991
X0023531
X0026071
X0028611
X0031151
X0033691
X0036231
X0038771
X0041311
X0043851
Y0051213
X0041311
X0038771
X0036231
X0033691
X0031151
X0028611
X0026071
X0023531
X0020991
X0018451
X0015911
X0013371
X0010831
X0046391
Y0053753
X0048931
Y0051213
X0051471
X0054011
X0056551
Y0053753
X0054011
X0051471
T07
X000545Y0026525
Y0029025
T08
X00615Y00035
X00035
X00615Y00525
T09
X0019905Y00084
X0027525
X003254Y00084
X004016Y00084
M30
