G04 Layer_Color=16711935*
%FSLAX43Y43*%
%MOMM*%
G71*
G01*
G75*
%ADD45C,1.500*%
%ADD74C,1.800*%
%ADD75R,1.800X1.800*%
%ADD76C,1.498*%
%ADD77C,3.350*%
%ADD78C,0.100*%
%ADD79C,1.603*%
%ADD80R,1.500X1.500*%
%ADD81C,1.300*%
%ADD82R,1.300X1.300*%
%ADD83R,1.800X1.800*%
%ADD84C,1.600*%
D45*
X18451Y53753D02*
D03*
X20991D02*
D03*
X36231D02*
D03*
X33691D02*
D03*
X26071D02*
D03*
X23531D02*
D03*
X31151D02*
D03*
X41311D02*
D03*
X38771D02*
D03*
X46391D02*
D03*
X8291D02*
D03*
X10831D02*
D03*
X13371D02*
D03*
X15911D02*
D03*
X46391Y51213D02*
D03*
X38771D02*
D03*
X41311D02*
D03*
X31151D02*
D03*
X23531D02*
D03*
X26071D02*
D03*
X33691D02*
D03*
X36231D02*
D03*
X20991D02*
D03*
X13371D02*
D03*
X10831D02*
D03*
X18451D02*
D03*
X51471D02*
D03*
X48931D02*
D03*
X56551D02*
D03*
Y53753D02*
D03*
X48931D02*
D03*
X51471D02*
D03*
X52750Y10450D02*
D03*
Y18050D02*
D03*
D74*
X56560Y29265D02*
D03*
X59100Y29265D02*
D03*
X61640Y29265D02*
D03*
X61640Y26725D02*
D03*
X59100D02*
D03*
X5450Y29025D02*
D03*
Y26525D02*
D03*
X14973Y2235D02*
D03*
X12433Y2235D02*
D03*
X9893Y2235D02*
D03*
X9893Y4775D02*
D03*
X12433D02*
D03*
X61600Y17457D02*
D03*
D75*
X56560Y26725D02*
D03*
X14973Y4775D02*
D03*
D76*
X21810Y14750D02*
D03*
X23080Y17290D02*
D03*
X24350Y14750D02*
D03*
X25620Y17290D02*
D03*
X38255D02*
D03*
X36985Y14750D02*
D03*
X35715Y17290D02*
D03*
X34445Y14750D02*
D03*
D77*
X27525Y8400D02*
D03*
X19905D02*
D03*
X32540Y8400D02*
D03*
X40160Y8400D02*
D03*
D78*
X61500Y52500D02*
D03*
Y3500D02*
D03*
X3500D02*
D03*
D79*
X28611Y53753D02*
D03*
X43851D02*
D03*
Y51213D02*
D03*
X28611D02*
D03*
X15911D02*
D03*
X54011D02*
D03*
Y53753D02*
D03*
D80*
X8291Y51213D02*
D03*
D81*
X60400Y41400D02*
D03*
X60400Y43400D02*
D03*
X60400Y45400D02*
D03*
D82*
Y39400D02*
D03*
D83*
X61600Y19997D02*
D03*
D84*
X14325Y21391D02*
D03*
Y16741D02*
D03*
M02*
